<?xml version="1.0" encoding="UTF-8"?>
<svg id="Layer_1" xmlns="http://www.w3.org/2000/svg" version="1.1" viewBox="0 0 221.1 216">
  <!-- Generator: Adobe Illustrator 29.1.0, SVG Export Plug-In . SVG Version: 2.1.0 Build 142)  -->
  <defs>
    <style>
      .st0 {
        fill: #023e51;
      }

      .st1 {
        fill: #0b80a5;
      }

      .st2 {
        fill: #ef6a40;
      }
    </style>
  </defs>
  <path class="st1" d="M25.3,181L2.7,114.9c-3.9-11.5,1-24.5,11.9-30.2l31.9-17.3,32.9,141.6-22.8-2.7c-14.4-1.7-26.7-11.5-31.4-25.3Z"/>
  <path class="st0" d="M147.7,105.9c.5,1.7,1,3.6,1.4,5.6,4.2,20.2,1.2,43.5-14.8,47.7-16,4.2-29.7-7.6-34-27.8-4.2-20.2,1.2-41.3,17.2-45.5,7.1-1.9,13.6-1,18.7,2.5l14.1-32.6-88.8,7.8,30.6,143.5,78.3-32.1-6.1-80.7-16.3,11.7-.2-.2Z"/>
  <path class="st2" d="M166.6,92.5l49.2-8c5.9-8.2,6.5-18.8,3.2-29.7l-52.5,37.7Z"/>
  <path class="st2" d="M213.6,42.1c-6.8-12.2-17.8-23.3-30.4-29.2l-31.9,74s62.3-44.8,62.3-44.8Z"/>
  <path class="st2" d="M170.3,8.8c-7.3-1.2-14.8-.5-21.9,2.7l2,43.6,20-46.4h-.2Z"/>
</svg>